<?xml version="1.0" standalone="no"?>
<!DOCTYPE svg PUBLIC "-//W3C//DTD SVG 20010904//EN"
 "http://www.w3.org/TR/2001/REC-SVG-20010904/DTD/svg10.dtd">
<svg version="1.0" xmlns="http://www.w3.org/2000/svg"
 width="260.000000pt" height="260.000000pt" viewBox="0 0 260.000000 260.000000"
 preserveAspectRatio="xMidYMid meet">
<metadata>
Created by potrace 1.11, written by Peter Selinger 2001-2013
</metadata>
<g transform="translate(0.000000,260.000000) scale(0.100000,-0.100000)"
fill="#000000" stroke="none">
<path d="M1085 2584 c-478 -83 -866 -416 -1019 -874 -47 -140 -64 -256 -64
-423 3 -588 398 -1094 973 -1247 116 -30 162 -35 340 -34 177 0 270 15 414 66
451 159 773 542 856 1018 19 109 14 364 -9 470 -99 453 -416 816 -846 968 -47
16 -110 35 -140 41 -30 6 -66 14 -80 17 -55 13 -346 12 -425 -2z m597 -499
c124 -14 343 -78 354 -103 4 -10 8 -93 10 -187 1 -129 -2 -195 -16 -275 -26
-149 -92 -366 -121 -395 -5 -5 -9 -15 -9 -22 0 -23 -112 -207 -177 -291 -126
-162 -296 -310 -466 -406 l-81 -45 -67 36 c-274 148 -521 413 -657 704 -82
175 -82 158 -3 237 38 37 91 79 119 94 l50 28 37 -108 c79 -228 216 -445 388
-610 40 -38 74 -62 87 -62 12 0 56 17 98 38 249 122 490 552 538 958 5 46 4
52 -19 67 -123 80 -375 86 -531 12 -75 -36 -106 -67 -106 -107 0 -60 98 -179
203 -248 l57 -38 -27 -33 c-49 -59 -152 -139 -179 -139 -20 0 -185 168 -225
230 -77 117 -130 239 -148 338 l-8 42 58 53 c135 120 327 210 504 237 51 8
253 5 337 -5z"/>
</g>
</svg>
