<!--SVG collection symbol sprite-->
<svg xmlns="http://www.w3.org/2000/svg" width="0" height="0" display="none">
    <title>SVG symbol sprite for vuejs.fun</title>
    <desc>Developed by Barfi team [http://barfi.ru]</desc>
    <!--Logo prototype-->
    <symbol id="v-logo" viewBox="0 0 150 60">
        <g>
            <path fill="#00948A" d="M28.4,49.2c-1.8,0.5-3.6,0.8-5.6,0.8c-3,0-5.8-0.6-8.4-1.8v0c-2.2-2.4-4.2-5-6-7.8c-0.1-0.1-0.1-0.2-0.2-0.2
			c0,0,0,0,0,0c0,0,0,0,0,0c-2.2-3.5-4-7.3-5.3-11.2c0.5-0.7,1.1-1.4,1.7-2.1C6,25.3,7.6,24,9.3,23v0c0.6-0.4,1.3-0.7,2-1
			c0.4,1.5,0.9,3,1.4,4.4c0,0.2,0.1,0.3,0.2,0.4c0.8,2.3,1.8,4.5,3,6.6c0.3,0.5,0.6,1.1,0.9,1.6c0,0.1,0.1,0.1,0.1,0.2
			c1.1,1.9,2.3,3.7,3.6,5.4c0.1,0.1,0.2,0.2,0.3,0.4c0.1,0.1,0.1,0.2,0.2,0.3c0.1,0.1,0.2,0.2,0.3,0.3
			C23.4,44.4,25.8,46.9,28.4,49.2z"/>
            <path fill="#55576E" d="M51.1,8c0,1.6-0.1,3.2-0.2,4.8c-0.3-0.2-0.7-0.4-1-0.6c0,0,0,0,0,0c-2.7-1.4-5.8-2.2-9.1-2.3
			c-0.1,0-0.2,0-0.3,0c-2.6,0-5.1,0.5-7.3,1.3c-1.3,0.5-2.5,1.1-3.6,1.8c0,0-0.1,0.1-0.1,0.1c-0.8,0.5-1.3,1.5-1.3,2.5
			c0,0.5,0.1,1,0.4,1.4c0,0.1,0.1,0.2,0.2,0.2c2,3.4,5,6.2,8.6,7.9c-0.5,0.7-1.1,1.4-1.7,2c-1.6,1.7-3.4,3.1-5.5,4.2
			c-3.4-2.5-6.3-5.5-8.6-9.1c0,0,0,0,0,0c0,0,0,0,0,0c-0.5-0.8-0.9-1.5-1.4-2.3c-0.3-0.6-0.7-1.3-1-2c-1.1-2.4-1.9-5-2.4-7.7
			c0.4-0.5,0.9-0.9,1.3-1.3c0,0,0,0,0,0c2.3-2.2,5-4.1,7.9-5.6c3.2-1.6,6.7-2.8,10.4-3.3c1.5-0.2,3-0.3,4.5-0.3c0.8,0,1.5,0,2.2,0.1
			c2.6,0.1,5.1,0.4,7.5,0.9c0,0.2,0,0.3,0.1,0.5C51,3.6,51.1,5.8,51.1,8z"/>
            <path fill="#00B6AD" d="M60.6,11.5c0,3.8-0.4,7.4-1.1,11c0,0.2-0.1,0.3-0.1,0.5c-0.4,2-1,4-1.6,5.9c0,0,0,0,0,0c0,0,0,0,0,0
			c-1,3.1-2.3,6-3.9,8.8v0c-1.1,2-2.3,3.8-3.6,5.6c0,0,0,0,0,0c-0.1,0.1-0.1,0.2-0.2,0.3c0,0-0.1,0.1-0.1,0.1
			c-0.5,0.7-1.1,1.4-1.6,2.1v0c-1.6,1.9-3.2,3.7-5,5.4l0,0c-1.7,1.6-3.5,3.1-5.5,4.4c-2.3,1.7-4.8,3.1-7.4,4.4
			c-0.5-0.2-0.9-0.5-1.4-0.7c-2.1-1.1-4.2-2.4-6.1-3.8c-3-2.2-5.8-4.6-8.4-7.4c2.6,1.1,5.4,1.8,8.4,1.8c1.9,0,3.8-0.3,5.6-0.8
			c0.6-0.2,1.2-0.4,1.8-0.6c0.3-0.1,0.6-0.2,0.9-0.4c2.9-1.2,5.4-3.1,7.4-5.4c0.1-0.1,0.2-0.3,0.3-0.4c0.6-0.7,1.1-1.4,1.7-2.2
			c0,0,0,0,0,0c0.5-0.7,1-1.4,1.5-2.1c0,0,0,0,0-0.1c0.1-0.1,0.2-0.2,0.2-0.4c0,0,0,0,0,0l0.3-0.5c1.9-3,3.6-6.3,4.9-9.7
			c1.7-4.5,2.9-9.3,3.4-14.4c0-0.1,0-0.2,0-0.3v0c0.1-1.6,0.2-3.2,0.2-4.8c0-2.2-0.1-4.4-0.4-6.6c0-0.2,0-0.3-0.1-0.5
			C53.9,1.6,57,2.5,60,3.6c0.1,0.8,0.2,1.6,0.3,2.5C60.5,7.8,60.6,9.6,60.6,11.5z"/>
        </g>
        <g>
            <path fill="#55576E" d="M76.3,32.5c0.2,0.8,0.4,1,1,1s0.8-0.1,1-1l1.6-7.2c0.3-1.1,0.6-1.3,1.6-1.3H82c1.1,0,1.3,0.3,1.1,1.3
			l-1.8,7.6c-0.3,1.2-0.5,1.8-1.1,2.4c-0.6,0.7-1.5,0.9-3,0.9s-2.4-0.2-3-0.9c-0.6-0.7-0.7-1.2-1-2.5l-1.8-7.6
			c-0.2-1.1,0-1.3,1.1-1.3H73c1.1,0,1.4,0.3,1.6,1.3L76.3,32.5z"/>
            <path fill="#55576E" d="M88,31.4c0,1.3,0.5,1.9,2.3,1.9c1.8,0,2.3-0.6,2.3-1.9v-6.1c0-1.1,0.3-1.3,1.3-1.3h0.5c1.1,0,1.3,0.3,1.3,1.3
			v6.1c0,3.3-1.7,4.8-5.4,4.8c-3.6,0-5.5-1.7-5.5-4.8v-6.1c0-1.1,0.3-1.3,1.3-1.3h0.5c1.1,0,1.3,0.3,1.3,1.3V31.4z"/>
            <path fill="#55576E" d="M108.7,29.8c-0.1,1.1-0.4,1.3-1.6,1.3H101v0.4c0,1.2,0.9,1.8,3.1,1.8c0.9,0,1.8-0.1,2.9-0.3
			c1-0.2,1.3,0,1.3,1.2v0.3c0,1.1-0.2,1.3-1.3,1.6c-0.8,0.2-1.8,0.3-2.9,0.3c-4.3,0-6.3-1.6-6.3-5.3v-1.9c0-3.6,1.9-5.4,5.6-5.4
			c3.5,0,5.3,1.7,5.3,5.2C108.7,29.2,108.7,29.5,108.7,29.8z M101,28.6h4.7v-0.4c0-1.2-0.8-1.8-2.4-1.8c-1.6,0-2.4,0.6-2.4,1.8V28.6
			z"/>
            <path fill="#55576E" d="M114.3,32.4c0,2.1-0.3,3.8-0.9,5.1c-0.6,1.3-1.4,2.4-2.4,3.3c-0.7,0.6-1.1,0.6-1.7-0.4l-0.2-0.3
			c-0.3-0.5-0.4-0.8-0.4-1.1c0-0.2,0.2-0.5,0.5-0.8c1.2-1.3,1.8-3.2,1.8-5.6v-7.3c0-1.1,0.3-1.3,1.3-1.3h0.5c1.1,0,1.3,0.3,1.3,1.3
			V32.4z M111.4,19c0.7-0.7,1.9-0.7,2.6,0s0.7,1.9,0,2.6s-1.9,0.7-2.6,0S110.7,19.8,111.4,19z"/>
            <path fill="#55576E" d="M116.5,34.1c0-1.1,0.3-1.4,1.3-1.1c0.9,0.3,2,0.4,3.3,0.4c1.4,0,1.8-0.1,1.8-0.7c0-0.4-0.2-0.6-1.5-1.1
			l-2.2-0.9c-1.7-0.7-2.5-1.6-2.5-3.4c0-2.4,1.4-3.5,4.9-3.5c0.9,0,1.8,0.1,2.5,0.3c1.1,0.3,1.3,0.5,1.3,1.6v0.2
			c0,1.1-0.3,1.3-1.3,1.1c-0.8-0.2-1.7-0.3-2.6-0.3c-1.4,0-1.8,0.2-1.8,0.6c0,0.4,0.2,0.5,1,0.8l2.5,1c1.9,0.7,2.8,1.7,2.8,3.6
			c0,2.5-1.5,3.6-5.2,3.6c-1.2,0-2.2-0.1-3-0.3c-1.1-0.3-1.3-0.5-1.3-1.6V34.1z"/>
            <path fill="currentColor" d="M127.1,21.9c0-0.5,0.1-0.7,0.7-0.8l0.6-0.1v-0.6c0-2,1-2.7,2.7-2.7c0.2,0,0.5,0,0.7,0
			c0.6,0.1,0.8,0.3,0.8,0.9v0.1c0,0.6-0.1,0.7-0.8,0.6c-0.2,0-0.4,0-0.6,0c-0.7,0-1,0.3-1,0.8V21h1.5c0.6,0,0.8,0.2,0.8,0.8v0.2
			c0,0.6-0.2,0.8-0.8,0.8h-1.5v4.5c0,0.6-0.2,0.8-0.8,0.8h-0.3c-0.6,0-0.8-0.2-0.8-0.8v-4.5h-0.6C127.2,22.7,127.1,22.5,127.1,21.9
			L127.1,21.9z"/>
            <path fill="currentColor" d="M135.1,25.3c0,0.8,0.3,1.1,1.4,1.1s1.3-0.3,1.3-1.1v-3.6c0-0.6,0.2-0.8,0.8-0.8h0.3c0.6,0,0.8,0.2,0.8,0.8
			v3.6c0,1.9-1,2.8-3.2,2.8c-2.1,0-3.2-1-3.2-2.8v-3.6c0-0.6,0.2-0.8,0.8-0.8h0.3c0.6,0,0.8,0.2,0.8,0.8V25.3z"/>
            <path fill="currentColor" d="M142.8,27.2c0,0.6-0.2,0.8-0.8,0.8h-0.3c-0.6,0-0.8-0.2-0.8-0.8v-3.6c0-1.8,1.1-2.8,3.2-2.8
			c2.2,0,3.2,0.9,3.2,2.8v3.6c0,0.6-0.2,0.8-0.8,0.8h-0.3c-0.6,0-0.8-0.2-0.8-0.8v-3.6c0-0.8-0.3-1.1-1.3-1.1s-1.4,0.3-1.4,1.1V27.2
			z"/>
        </g>

    </symbol>
    <!--Avatars prototypes-->
    <symbol id="ava-default" viewBox="0 0 52 52">
        <circle fill="#eeeef0" cx="26" cy="26" r="26"/>
        <path fill="#ced0d8" d="M40.3,13.9c0-0.4-0.1-0.9-0.2-1.3c-1.6-0.6-3.2-1.1-4.9-1.4c-1.3-0.2-2.6-0.4-4-0.5c-0.4,0-0.8,0-1.2,0
			c-0.8,0-1.6,0.1-2.4,0.2c-2,0.3-3.8,0.9-5.5,1.7c-1.5,0.8-2.9,1.8-4.1,2.9c0,0,0,0,0,0c-0.2,0.2-0.5,0.5-0.7,0.7
			c0.3,1.4,0.7,2.8,1.3,4c0.2,0.4,0.3,0.7,0.5,1c0.2,0.4,0.5,0.8,0.7,1.2c0,0,0,0,0,0c0,0,0,0,0,0c1.2,1.9,2.7,3.5,4.5,4.8
			c1.1-0.6,2-1.3,2.9-2.2c0.3-0.3,0.6-0.7,0.9-1.1c-1.9-0.9-3.4-2.4-4.5-4.2c0,0-0.1-0.1-0.1-0.1c-0.1-0.2-0.2-0.5-0.2-0.8
			c0-0.5,0.3-1,0.7-1.3c0,0,0,0,0.1,0c0.6-0.4,1.2-0.7,1.9-0.9c1.2-0.5,2.5-0.7,3.9-0.7c0.1,0,0.1,0,0.2,0c1.7,0,3.3,0.4,4.8,1.2
			c0,0,0,0,0,0c0.2,0.1,0.4,0.2,0.5,0.3v0c0,0.1,0,0.1,0,0.1c-0.2,2.6-0.9,5.2-1.8,7.5C32.9,27,32,28.7,31,30.3l-0.2,0.3
			c0,0,0,0,0,0c0,0.1-0.1,0.1-0.1,0.2c0,0,0,0,0,0c-0.2,0.4-0.5,0.7-0.8,1.1c0,0,0,0,0,0c-0.3,0.4-0.6,0.8-0.9,1.1
			c-0.1,0.1-0.1,0.1-0.2,0.2c-1.1,1.2-2.4,2.2-3.9,2.9c-0.1,0.1-0.3,0.1-0.5,0.2c-0.3,0.1-0.6,0.2-0.9,0.3c-1.4-1.2-2.6-2.5-3.8-3.9
			c-0.1-0.1-0.1-0.1-0.1-0.2c0,0-0.1-0.1-0.1-0.1c-0.1-0.1-0.1-0.1-0.1-0.2c-0.7-0.9-1.3-1.9-1.9-2.8c0,0,0-0.1-0.1-0.1
			c-0.2-0.3-0.3-0.6-0.5-0.8c-0.6-1.1-1.1-2.3-1.6-3.5c0-0.1-0.1-0.2-0.1-0.2c-0.3-0.8-0.5-1.5-0.7-2.3c-0.4,0.2-0.7,0.3-1,0.5v0
			c-0.9,0.5-1.7,1.2-2.4,2c-0.3,0.3-0.6,0.7-0.9,1.1c0.7,2.1,1.6,4.1,2.8,5.9c0,0,0,0,0,0c0,0,0,0,0,0c0,0,0.1,0.1,0.1,0.1
			c0.9,1.5,2,2.8,3.2,4.1v0c1.3,1.4,2.8,2.7,4.4,3.9c1,0.7,2.1,1.4,3.2,2c0.2,0.1,0.5,0.2,0.7,0.4c1.4-0.7,2.7-1.4,3.9-2.3
			c1-0.7,2-1.5,2.9-2.3l0,0c0.9-0.9,1.8-1.8,2.7-2.8v0c0.3-0.4,0.6-0.7,0.9-1.1c0,0,0,0,0-0.1c0,0,0.1-0.1,0.1-0.1c0,0,0,0,0,0
			c0.7-0.9,1.3-1.9,1.9-3v0c0.8-1.5,1.5-3,2-4.6c0,0,0,0,0,0c0,0,0,0,0,0c0.3-1,0.6-2,0.9-3.1c0-0.1,0-0.2,0.1-0.3
			c0.4-1.9,0.6-3.8,0.6-5.8C40.5,15.8,40.4,14.9,40.3,13.9z"/>
    </symbol>
    <symbol id="ava-special-1" viewBox="0 0 52 52">
        <circle fill="#eeeef0" cx="26" cy="26" r="26"/>
        <g id="gr-skin" fill="#FDD09F">
            <path d="M12,26.5c0,2.2,0.9,4.3-1,4.3s-3.5-1.8-3.5-4s1.6-4,3.5-4S12,24.3,12,26.5z"/>
            <path d="M43.6,29.2c0,1.2-1.7,1.8-2.6,1.8s-1-0.8-1-2c0-1.2,0.1-2.4,1.1-2.4S43.6,27.9,43.6,29.2z"/>
            <path d="M35.6,40.4c-1.7,2-6.1,4.4-9.5,4.4c-3.5,0-8.5-2.9-10.4-5.1C14.3,38,12.4,34.1,12,32c-0.5-2.7,0-10.9,0-10.9
			h28c0,0,0.5,8.2,0,10.9C39.5,34.3,37.2,38.6,35.6,40.4z"/>
        </g>
        <g id="gr-beard" fill="inherit">
            <polygon points="12,21.1 14.8,21.1 14.8,29 12.9,34.2 12,29.7 		"/>
            <polygon points="40,21.1 37.2,21.1 37.2,29 39.1,34.2 40,29.7 		"/>
            <path d="M29.6,44.3h-7.3c-2.4,0-4.3-1.9-4.3-4.3v-3.3c0-2.4,1.9-4.3,4.3-4.3h7.3c2.4,0,4.3,1.9,4.3,4.3V40
			C33.9,42.4,32,44.3,29.6,44.3z"/>
        </g>
        <g id="gr-cap" fill="currentColor">
            <path d="M16.2,10.5C18,8.7,22.5,6.9,26,6.9c3.5,0,8,2,9.9,3.8c1.3,1.3,3.2,4.5,3.7,6.3c0.3,1,0.4,4.2,0.4,4.2l-28-0.1
			c0,0,0.2-3.1,0.4-4.1C12.9,15.2,14.8,11.9,16.2,10.5z"/>
            <path d="M40.3,19.8c1.1,1.1,4.6,0.2,6.8-1.9s2.7-5.7,1.9-6.5c-0.9-0.9-4.4-0.3-6.6,1.9S39.2,18.6,40.3,19.8z"/>
            <path d="M40.7,20.7c-1,1.3-0.5,4.6,1.7,6.8c2.2,2.1,5.9,2.6,6.7,1.8c0.9-0.9,0.3-4.4-1.9-6.6
			C45,20.5,41.6,19.5,40.7,20.7z"/>
        </g>
        <g id="gr-stroke" fill="#55576e">
            <path fill="#fff"
                  d="M31.4,36.6c0,2.4-2.2,1.3-5.4,1.3s-5.2,0.9-5.4-1.5c-0.1-1.1,2.3-2.1,5.4-2.1S31.4,35.5,31.4,36.6z"/>
            <circle cx="45.6" cy="14.7" r="0.9"/>
            <circle cx="21.4" cy="17.8" r="0.9"/>
            <path d="M29.6,15.6h-2.4c-0.5,0-0.9-0.4-0.9-0.9s0.4-0.9,0.9-0.9h2.4c0.5,0,0.8,0.4,0.8,0.9S30.1,15.6,29.6,15.6z"/>
            <path d="M35.2,18.7c-0.5,0-0.8-0.4-0.8-0.9c0-0.5,0.4-0.9,0.8-0.9l2.3,0c0.5,0,0.8,0.4,0.8,0.9c0,0.5-0.4,0.9-0.8,0.9
			L35.2,18.7z"/>
            <path d="M22.4,27.3l-3-1.7c-0.4-0.2-0.9-0.1-1.2,0.3c-0.2,0.4-0.1,0.9,0.3,1.2l1.2,0.7c-0.5,0.2-0.9,0.6-0.9,1.2
			c0,0.7,0.6,1.3,1.3,1.3s1.3-0.6,1.3-1.3c0-0.1,0-0.2-0.1-0.3l0.2,0.1c0.1,0.1,0.3,0.1,0.4,0.1c0.3,0,0.6-0.2,0.7-0.4
			C23,28,22.8,27.5,22.4,27.3z"/>
            <path d="M33.9,25.8c-0.2-0.4-0.8-0.5-1.2-0.3l-3.1,1.8c-0.4,0.2-0.5,0.8-0.3,1.2c0.2,0.3,0.4,0.4,0.7,0.4
			c0.1,0,0.3,0,0.4-0.1l0.2-0.1c0,0.1-0.1,0.2-0.1,0.3c0,0.7,0.6,1.3,1.3,1.3s1.3-0.6,1.3-1.3c0-0.6-0.4-1.1-1-1.2l1.3-0.8
			C34,26.7,34.2,26.2,33.9,25.8z"/>
            <path d="M26,35.4c1.7,0,2.3,0.1,3,0.3l0.3,0.1c0.2,0,1.1,0.3,1.1,1v0.1c0,0.4-0.4,0.8-0.6,0.8c-0.2,0-0.5-0.1-0.8-0.1
			c-0.7-0.1-1.6-0.3-3.1-0.3c-1.3,0-2.4,0.2-3,0.4c-0.2,0-0.5,0.1-0.5,0.1c-0.4,0-0.9-0.3-0.9-0.8v-0.1c0-0.7,0.8-0.9,1.1-0.9
			c0.2,0,0.3-0.1,0.5-0.1C23.9,35.5,24.6,35.4,26,35.4L26,35.4 M26,33.7c-1.9,0-2.7,0.2-3.6,0.4c-1.4,0.3-2.5,1.2-2.5,2.6v0.1
			c0,1.4,1.1,2.4,2.5,2.5c0,0,0.1,0,0.1,0c0.6,0,1.7-0.5,3.6-0.5c1.9,0,2.7,0.4,3.7,0.5c0,0,0.1,0,0.1,0c1.1,0,2.3-1.2,2.3-2.5v-0.1
			c0-1.4-1.1-2.3-2.5-2.6C28.8,33.9,28.2,33.7,26,33.7C26,33.7,26,33.7,26,33.7L26,33.7z"/>
            <path d="M49.9,10.4c-0.2-0.2-0.5-0.3-0.8-0.2c-0.1,0-0.4,0-0.6,0c-0.3,0-0.7,0-1.1,0c-3,0.1-6.1,1.5-7.5,5.1
			C37.7,9.8,32.3,5.9,26,5.9c-8.3,0-15,6.7-15,15v0.9c-2.6,0.3-4.5,2.4-4.5,5c0,1.9,1,3.5,2.5,4.4v2.3c0,0.5,0.4,0.8,0.9,0.8
			s0.9-0.4,0.9-0.8v-1.6c0.2,0,0.3,0,0.5,0.1c0.5,4,2.7,7.6,5.8,10c2.2,2.5,5.5,4.1,9.1,4.1s6.9-1.6,9.1-4.1c3.1-2.4,5.2-5.9,5.8-10
			c1.6-0.1,2.9-0.9,3.8-2.1c1.2,0.4,2.3,0.5,2.8,0.5c0.3,0,0.5,0,0.7,0c0.3,0,0.5,0,0.9,0.1c0,0,0.1,0,0.1,0c0.2,0,0.5-0.1,0.6-0.3
			c0.2-0.2,0.3-0.5,0.2-0.8c0-0.1,0-0.4,0-0.6c0-0.3,0-0.7,0-1c-0.1-2.9-1.5-6-4.9-7.4c0.8-0.3,1.4-0.6,2-1.1
			c2.5-2.1,2.8-5.3,2.8-6.2c0-0.3,0-0.5,0-0.7c0-0.3,0-0.5,0.1-0.9C50.2,10.9,50.1,10.6,49.9,10.4z M10.7,30v-1.5
			c0-0.5-0.4-0.8-0.9-0.8S9,28,9,28.5V29c-0.5-0.6-0.8-1.4-0.8-2.2c0-1.7,1.2-3.1,2.8-3.3v6.4c0,0.1,0,0.2,0,0.2
			C10.9,30.1,10.8,30.1,10.7,30z M26,7.9c4.6,0,8.6,2.4,10.9,6l-4.4,0c-0.5,0-0.8,0.4-0.8,0.9c0,0.5,0.4,0.8,0.8,0.8c0,0,0,0,0,0
			l5.3-0.1c0.7,1.4,1.1,3,1.1,4.7H13c0-0.5,0.1-1,0.2-1.5h5.2c0.5,0,0.9-0.4,0.9-0.9S18.9,17,18.5,17h-4.8
			C15.3,11.7,20.2,7.9,26,7.9z M13,29.9v-7.6h0.9v6.4c0,0-0.1,1.7-0.8,3.1C13.1,31.1,13,30.5,13,29.9z M33.1,41
			c-1.9,1.8-4.4,2.9-7.1,2.9s-5.2-1-7.1-2.9v-4.3c0-1.8,1.5-3.3,3.4-3.3h7.5c1.9,0,3.4,1.5,3.4,3.3V41z M35.1,39.1v-2.5
			c0-3-2.4-5.3-5.4-5.3h-7.5c-3,0-5.4,2.4-5.4,5.3v2.5c-1.4-1.4-2.6-3.2-3.2-5.1c1.8-2.1,1.9-5.2,1.9-5.4v-6.4h20.9v6.4
			c0,0.1,0.1,3.3,1.9,5.3C37.7,35.9,36.5,37.7,35.1,39.1z M39,29.9c0,0.6,0,1.2-0.1,1.8c-0.6-1.4-0.7-3-0.7-3v-6.4H39V29.9z
			 M41,30.1c0-0.1,0-0.2,0-0.3v-2.7c0.1,0.1,0.1,0.2,0.2,0.3c0.6,0.7,1.2,1.2,1.8,1.6C42.5,29.6,41.8,30,41,30.1z M48.4,27.7
			c0,0.3,0,0.6,0,0.8c-0.1,0-0.2,0-0.3,0c-0.2,0-0.4,0-0.6,0c-0.8,0-3.3-0.3-4.9-2.2c-0.8-0.9-1.2-2.1-1.3-3.5l2.9,2.6
			c0.2,0.2,0.4,0.2,0.6,0.2c0.2,0,0.5-0.1,0.6-0.3c0.3-0.3,0.3-0.9-0.1-1.2l-3.4-3.1C47.7,21.7,48.3,26.2,48.4,27.7z M48.4,12.8
			c0,0.8-0.3,3.3-2.2,4.9c-0.9,0.7-2,1.1-3.3,1.3l1.5-1.4c0.3-0.3,0.4-0.9,0-1.2c-0.3-0.3-0.9-0.4-1.2,0l-2.4,2.2
			c0.6-6,5.1-6.6,6.6-6.6c0.3,0,0.6,0,0.8,0c0,0.1,0,0.2,0,0.3C48.4,12.3,48.4,12.5,48.4,12.8z"/>
        </g>
    </symbol>
    <symbol id="ava-special-2" viewBox="0 0 52 52">
        <circle fill="#eeeef0" cx="26" cy="26" r="26"/>
        <g id="gr-beard_1" fill="inherit">
            <circle cx="26" cy="31.7" r="15.3"/>
        </g>
        <g id="gr-skin_1" fill="#FDD09F">
            <path d="M37.1,27c-0.9,7.3-1.9,10.8-10.9,10.8C15.5,37.8,16,33.8,15,27c-0.5-3.2,4.3-4.4,10.7-4.4S37.6,23.2,37.1,27z
			"/>
        </g>
        <g id="gr-cap_1">
            <polygon fill="currentColor" points="11,24 14.5,25 20.9,23 29.2,22.9 37.2,25 40.9,24 45.7,15.2 40.3,13.9 36.8,11.3 33.9,7.7 29.5,5.2
			23.2,5.2 18.4,7.3 14.8,11.6 11,14.1 6.8,15.3 		"/>
            <polygon fill="#000" fill-opacity="0.15" points="6.8,15.3 8.5,18.8 13.4,17.2 17.7,13.8 21.6,9.9 25,8.8 29,9.2 31.9,10.9 35.9,15.5 40.2,17.9
			43.7,18.8 45.5,15.5 39.7,13.8 36.8,10.9 33.9,7.7 29.7,5.3 23.7,5 19.6,6.7 15.3,10.9 12,13.8 		"/>
        </g>
        <g id="gr-stroke_1" fill="#55576e">
            <path fill="#fff"
                  d="M29.7,33.6c0,1.6-1.8,0.7-3.8,0.7s-3.6,0.9-3.9-0.6c-0.2-1.2,1.9-1.4,3.9-1.4S29.7,32.5,29.7,33.6z"/>
            <path d="M26,32.7c1.2,0,2.7,0.3,3.1,0.4c0.1,0,0.3,0.2,0.3,0.3v0.2c0,0.2-0.3,0.5-0.5,0.5h0c-0.1,0-0.3-0.1-0.5-0.1
			c-0.5-0.1-1.2-0.3-2.4-0.3c-1.2,0-1.9,0.2-2.4,0.3c-0.2,0-0.4,0.1-0.5,0.1c-0.2,0-0.5-0.2-0.5-0.5l0-0.1c0-0.1,0.2-0.3,0.2-0.4
			C23.8,32.9,25.3,32.7,26,32.7 M26,31c-0.8,0-2.4,0.1-3.7,0.5c-0.8,0.2-1.4,1.2-1.4,2v0.1c0,1.2,1,2.2,2.2,2.2c0.1,0,0.1,0,0.2,0
			c0.7-0.1,1.2-0.3,2.8-0.3c1.5,0,2,0.3,2.7,0.4c0.1,0,0.1,0,0.2,0c1.1,0,2.2-1,2.2-2.2v-0.2c0-1.1-1-1.8-1.4-1.9
			C29.1,31.3,27.3,31,26,31L26,31z"/>
            <path d="M23.9,26.4l-2.7-1.5c-0.4-0.2-0.9-0.1-1.2,0.3s-0.1,0.9,0.3,1.2l0.8,0.4c-0.4,0.2-0.7,0.6-0.7,1.1
			c0,0.7,0.6,1.3,1.3,1.3s1.3-0.6,1.3-1.3c0-0.1,0-0.1,0-0.2l0.2,0.1c0.1,0.1,0.3,0.1,0.4,0.1c0.3,0,0.6-0.2,0.7-0.4
			C24.4,27.2,24.3,26.6,23.9,26.4z"/>
            <circle fill="#636577" cx="31.5" cy="26.8" r="3"/>
            <path d="M29.1,12.2c0-0.1,0-0.2,0-0.3l0-0.1l-0.1-0.1c-0.4-0.2-0.8-0.3-1.2-0.3c-0.3-0.1-0.7-0.1-1-0.1
			c-0.1,0-0.2,0-0.3,0h0h0c-0.2,0-0.4,0-0.6,0c-0.5,0.1-1,0.2-1.4,0.4c-0.4,0.2-0.7,0.4-1.1,0.7c-0.1,0.1-0.1,0.1-0.2,0.2l-0.1,0.1
			l0,0.1c0.1,0.4,0.2,0.7,0.3,1c0,0.1,0.1,0.2,0.1,0.3c0.1,0.1,0.1,0.2,0.2,0.3l0,0l0,0c0.3,0.5,0.7,0.9,1.1,1.2l0.1,0.1l0.1-0.1
			c0.3-0.2,0.5-0.3,0.8-0.6c0.1-0.1,0.2-0.2,0.2-0.3l0.2-0.2l-0.3-0.1c-0.4-0.2-0.7-0.5-1-0.9c0,0,0-0.1,0-0.1c0,0,0-0.1,0.1-0.1
			c0.1-0.1,0.3-0.2,0.4-0.2c0.3-0.1,0.5-0.2,0.8-0.2c0.4,0,0.7,0.1,1,0.2c-0.1,0.6-0.2,1.1-0.4,1.6c-0.2,0.4-0.4,0.8-0.6,1.2l0,0.1
			l0,0l0,0c-0.1,0.1-0.1,0.2-0.2,0.3c-0.1,0.1-0.1,0.2-0.2,0.3l0,0c-0.2,0.3-0.5,0.5-0.8,0.6c0,0-0.1,0-0.1,0c0,0-0.1,0-0.1,0
			c-0.3-0.2-0.5-0.5-0.8-0.8l0,0l0,0l0,0l-0.1-0.1c-0.2-0.2-0.3-0.4-0.4-0.7c-0.1-0.1-0.1-0.2-0.1-0.2c-0.1-0.3-0.3-0.5-0.4-0.8l0,0
			l0-0.1c-0.1-0.2-0.1-0.4-0.2-0.5l-0.1-0.3L22.6,14c-0.1,0-0.2,0.1-0.3,0.1c-0.2,0.1-0.5,0.3-0.6,0.5c-0.1,0.1-0.2,0.2-0.2,0.3
			L21.4,15l0,0.1c0.2,0.5,0.4,1,0.7,1.5v0l0,0l0,0l0,0l0,0l0,0c0.2,0.4,0.5,0.7,0.8,1c0.3,0.4,0.7,0.7,1.1,1
			c0.3,0.2,0.5,0.3,0.8,0.5c0.1,0,0.1,0.1,0.2,0.1l0.1,0.1l0.1-0.1c0.3-0.2,0.7-0.4,1-0.6c0.3-0.2,0.5-0.4,0.7-0.6
			c0.2-0.2,0.5-0.5,0.7-0.7c0.1-0.1,0.1-0.2,0.2-0.3l0,0l0-0.1c0.2-0.2,0.3-0.5,0.5-0.7c0.2-0.4,0.4-0.8,0.5-1.1l0,0v0
			c0.1-0.2,0.1-0.5,0.2-0.7l0-0.1c0.1-0.5,0.1-0.9,0.1-1.4C29.2,12.6,29.2,12.4,29.1,12.2z"/>
            <path d="M42.2,23.7c1.3-2.5,3.3-6.2,4.3-8.2c0.2-0.3,0.1-1-0.6-1.1c-3.8-0.6-6.3-1.4-8.6-4C36.2,8.9,33.3,4,26,4
			s-10.2,5-11.4,6.3c-2.2,2.6-4.8,3.5-8.6,4c-0.6,0.1-0.7,0.8-0.6,1.1c1,2,3,5.7,4.3,8.2c0.3,0.6,0.7,1,1.2,1.4
			c-0.9,2-1.4,4.2-1.4,6.6C9.7,40.7,17,48,26,48s16.3-7.3,16.3-16.3c0-2.3-0.5-4.6-1.4-6.6C41.4,24.7,41.9,24.3,42.2,23.7z M8,16
			c3.2-0.6,5.8-1.8,8.1-4.4c0.2-0.2,0.3-0.4,0.6-0.7C18,9.2,20.5,6,26,6c5.5,0,8,3.2,9.3,4.9c0.2,0.3,0.4,0.5,0.6,0.7
			c2.3,2.7,4.9,3.8,8.1,4.4c-0.2,0.4-0.5,0.9-0.8,1.4c-3.4-0.6-6.5-2.5-8.1-4.3c-1.4-1.6-3.7-5.5-9.1-5.5s-7.7,3.9-9.1,5.5
			c-1.6,1.7-4.7,3.7-8.1,4.3C8.5,17,8.3,16.5,8,16z M26,46c-7.9,0-14.3-6.4-14.3-14.3c0-2,0.4-4,1.2-5.7c0.3,0.1,0.7,0.1,1,0.2
			c0.1,0,0.1,0,0.2,0c0,0,0.1,0,0.1,0c-0.1,0.6-0.2,1.2-0.2,1.8c-0.2,5.5,4.6,10.7,7.8,10.9c0.1,0,0.2,0,0.2,0c1.3,0,2-0.7,4-0.7
			c2.1,0,2.6,0.7,3.9,0.7c0.2,0,0.4,0,0.7-0.1c3.1-0.5,7.5-5.5,7.5-10.8c0-0.6-0.1-1.2-0.2-1.8c0,0,0.1,0,0.1,0c0.1,0,0.1,0,0.2,0
			c0.3,0,0.6-0.1,1-0.2c0.8,1.8,1.2,3.7,1.2,5.7C40.3,39.6,33.9,46,26,46z M31.6,30.9c0.2,0,0.4,0,0.6-0.1l1.5,3.7
			c-1.2,1.4-2.5,2.4-3.4,2.5c-0.1,0-0.3,0-0.4,0c-0.3,0-0.5-0.1-0.9-0.2c-0.7-0.2-1.5-0.5-3-0.5c-1.4,0-2.3,0.3-3,0.5
			c-0.5,0.1-0.7,0.2-1,0.2c0,0-0.1,0-0.1,0c-2.1-0.1-6.2-4.4-6.1-9c0-0.8,0.1-1.6,0.3-2.3c1.9-0.7,4.4-1.9,9.9-1.9c1,0,2,0,2.8,0.1
			c-0.8,0.7-1.3,1.8-1.3,3C27.5,29.1,29.3,30.9,31.6,30.9z M35.4,25.4c0.2,0.1,0.4,0.1,0.5,0.2c0.2,0.7,0.3,1.5,0.3,2.3
			c0,1.8-0.6,3.4-1.4,4.9l-1.1-2.6c1.1-0.7,1.9-2,1.9-3.4C35.6,26.3,35.5,25.8,35.4,25.4z M31.6,29.2c-1.3,0-2.4-1.1-2.4-2.4
			s1.1-2.4,2.4-2.4s2.4,1.1,2.4,2.4S32.9,29.2,31.6,29.2z M40.4,22.8C40,23.6,38.9,24,38,24.1l-0.1,0c-0.5,0-1.1-0.2-1.9-0.6
			c-1.9-0.7-4.7-1.8-10.1-1.8c0,0,0,0,0,0c-5.1,0.1-8,1.1-9.9,1.8c-0.9,0.3-1.5,0.6-2,0.6c0,0-0.1,0-0.1,0c-0.8,0-1.9-0.5-2.4-1.3
			c-0.5-1-1.2-2.2-1.8-3.4c3.6-0.8,6.8-2.8,8.6-4.8c0.2-0.2,0.5-0.5,0.7-0.9c1.4-1.8,3.2-4,6.9-4c3.7,0,5.5,2.2,6.9,4
			c0.3,0.3,0.5,0.6,0.7,0.9c1.7,2,5,4,8.6,4.8C41.6,20.5,40.9,21.8,40.4,22.8z"/>
        </g>
    </symbol>
    <symbol id="ava-special-3" viewBox="0 0 52 52">
        <circle fill="#eeeef0" cx="26" cy="26" r="26"/>
        <g id="gr-swords">
            <polygon fill="inherit"
                     points="17.3,15.6 15.4,17.5 7.6,9.9 5.5,9.1 4.8,7 6.5,5.1 8.8,5.8 9.5,7.9 		"/>
            <polygon fill="#C3C5D1" points="46.6,44.4 17.7,15.6 15.4,17.9 26,29.4 39.7,41.9 44.5,44.5 		"/>
            <polygon fill="inherit"
                     points="34.7,15.6 36.6,17.5 44.4,9.9 46.5,9.1 47.2,7 45.5,5.1 43.2,5.8 42.5,7.9 		"/>
            <polygon fill="#C3C5D1" points="5.4,44.4 34.3,15.6 36.6,17.9 26,29.4 12.3,41.9 7.5,44.5 		"/>
            <path fill="#55576e" d="M18.7,16.2l-1-0.4l-0.3-1l-6.6-6.7C10.8,8,10.9,8,10.9,7.9c0.3-0.3,0.4-0.8,0.1-1.1c-0.2-0.2-0.5-0.3-0.8-0.2
			c-0.4-1.3-1.6-2.2-3-2.2C5.4,4.3,4,5.8,4,7.5c0,1.4,0.9,2.6,2.2,3c-0.5,0.8-0.9,2.1-0.9,3.5c0,1.3,0.4,2.7,1.6,3.9
			c2.6,2.9,6.5,1.7,7.9,1.1c0.9,0.9,3.7,3.9,7.3,7.4L4.3,44.2c-0.3,0.3-0.3,0.6-0.1,1c0.4,0.7,1.5,0.8,5.7-1
			c3.1-1.4,10-7.7,16.2-13.7c6.1,6,13,12.3,16.2,13.7c4.1,1.8,5.3,1.7,5.7,1c0.2-0.3,0.1-0.7-0.1-1L30,26.5c3.6-3.6,6.4-6.5,7.3-7.4
			c1.4,0.7,5.2,1.8,7.9-1.1c1.2-1.3,1.6-2.7,1.6-3.9c0-1.4-0.5-2.7-0.9-3.5c1.3-0.4,2.2-1.6,2.2-3c0-1.7-1.4-3.1-3.1-3.1
			c-1.4,0-2.6,1-3,2.2c-0.3-0.1-0.6,0-0.8,0.2c-0.3,0.3-0.3,0.8,0.1,1.1c0,0,0.1,0.1,0.2,0.1l-6.5,6.5c-0.1-0.1-0.1-0.2-0.2-0.3
			l-1.3,0.9L26,22.5l-7.4-7.1L18.7,16.2z M43.9,16.9c-2.4,2.6-6.2,0.7-6.2,0.7c0,0,0,0,0,0l6.5-6.5C44.9,12.1,45.9,14.8,43.9,16.9z
			 M44.8,6.1c0.8,0,1.4,0.6,1.4,1.4c0,0.8-0.6,1.4-1.4,1.4c-0.1,0-0.1,0-0.2,0c-0.1,0-0.2,0-0.3-0.1c-0.2-0.2-0.5-0.5-0.8-0.7
			c-0.1-0.1-0.1-0.3-0.1-0.5c0,0,0-0.1,0-0.1C43.4,6.7,44.1,6.1,44.8,6.1z M42.4,9.1c0.3,0.3,0.6,0.5,0.8,0.7l-6.6,6.6l-0.8-0.8
			L42.4,9.1z M34.2,16.6l1.7,1.7c-1.1,1.1-3.7,3.9-7,7.1l-1.8-1.8L34.2,16.6z M27.8,26.5c-0.6,0.6-1.2,1.2-1.8,1.7
			c-0.6-0.6-1.2-1.2-1.8-1.7l1.8-1.8L27.8,26.5z M5.8,7.5c0-0.8,0.6-1.4,1.4-1.4s1.4,0.6,1.4,1.4c0,0,0,0.1,0,0.1
			c0,0.2-0.1,0.3-0.1,0.5C8.2,8.3,7.9,8.6,7.7,8.8c-0.1,0-0.2,0.1-0.3,0.1c-0.1,0-0.1,0-0.2,0C6.4,8.9,5.8,8.3,5.8,7.5z M14.2,17.5
			c0,0-3.8,1.9-6.2-0.7c-1.9-2.1-0.9-4.8-0.3-5.9L14.2,17.5C14.2,17.5,14.2,17.5,14.2,17.5z M8.8,9.9C9,9.6,9.3,9.4,9.6,9.1l6.6,6.6
			l-0.8,0.8L8.8,9.9z M16.2,18.2l1.7-1.7l7,7.1l-1.8,1.8C19.9,22.1,17.2,19.4,16.2,18.2z M9.2,42.7c-0.8,0.4-1.5,0.6-2,0.8l15.9-16
			c0.6,0.6,1.2,1.1,1.8,1.7C18.8,35.2,12.1,41.4,9.2,42.7z M42.8,42.7c-2.9-1.3-9.6-7.5-15.7-13.4c0.6-0.6,1.2-1.2,1.8-1.7l15.9,16
			C44.3,43.4,43.6,43.1,42.8,42.7z"/>
        </g>
        <g id="gr-skin_2">
            <polygon fill="#B2B3BB" points="13.9,25.6 38.3,25.6 38.9,28.9 38.9,37.4 35.8,38.3 33.9,40.9 33.3,43.8 19.2,43.8 18.1,40.9
			15.4,38.2 13,37.4 13,29.3 		"/>
        </g>
        <g id="gr-cap_2">
            <polygon fill="currentColor" points="8.5,25.5 43.4,25.5 43.4,22.7 40.7,21 43.4,20.3 43.2,17.3 41.2,15.8 37.8,15.8 35.6,13.6 34.3,11
			30.1,7.8 26.5,7 22.4,7.8 18.8,9.8 17.9,11.6 18.4,16.2 16,14.6 12.8,16.2 9.5,16.4 8.7,18.2 		"/>
            <rect x="8.5" y="22.7" fill="#000" fill-opacity="0.15" width="34.9" height="2.8"/>
        </g>
        <g id="gr-stroke_2" fill="#55576e">
            <polygon fill="#696B7C" points="26,33 27.6,35.9 26.9,36.7 25.3,36.7 24.4,35.8 		"/>
            <path d="M26,34.1l0.9,1.6c0,0.1,0,0.2,0,0.3c0,0.1-0.1,0.1-0.2,0.1H26h-0.7c-0.1,0-0.2,0-0.2-0.1c0-0.1,0-0.2,0-0.2
			L26,34.1 M26,32.2c-0.2,0-0.4,0.1-0.6,0.3l-1.5,2.6c-0.6,1,0.2,2.3,1.3,2.3H26h0.7c1.2,0,1.9-1.3,1.4-2.3l-1.5-2.6
			C26.4,32.3,26.2,32.2,26,32.2L26,32.2z"/>
            <polygon fill="#696B7C" points="28.3,30.3 33.2,28.9 35.8,30.1 36.9,33.1 34,34.6 29.7,33.2 		"/>
            <path d="M33.1,29.8c1.7,0,2.6,1.8,2.6,3c0,0.7-1.4,0.7-1.9,0.7c-0.3,0-0.7,0-1-0.1c-1.6-0.2-3-1.5-3.6-2.7
			C30.4,30.5,32.5,29.8,33.1,29.8 M33.1,28.1c-1.1,0-3.8,0.9-5.4,1.4c-0.4,0.1-0.5,0.4-0.5,0.6c0.4,2,2.5,4.6,5.4,5
			c0.4,0.1,0.8,0.1,1.2,0.1c1.8,0,3.6-0.6,3.6-2.4C37.5,30.8,35.9,28.1,33.1,28.1L33.1,28.1z"/>
            <path d="M29.5,13.4c0-0.1,0-0.2,0-0.3l0-0.1l-0.1-0.1c-0.4-0.2-0.8-0.3-1.2-0.3c-0.3-0.1-0.7-0.1-1-0.1
			c-0.1,0-0.2,0-0.3,0h0h0c-0.2,0-0.4,0-0.6,0c-0.5,0.1-1,0.2-1.4,0.4c-0.4,0.2-0.7,0.4-1.1,0.7c-0.1,0.1-0.1,0.1-0.2,0.2l-0.1,0.1
			l0,0.1c0.1,0.4,0.2,0.7,0.3,1c0,0.1,0.1,0.2,0.1,0.3c0.1,0.1,0.1,0.2,0.2,0.3l0,0l0,0c0.3,0.5,0.7,0.9,1.1,1.2l0.1,0.1l0.1-0.1
			c0.3-0.2,0.5-0.3,0.8-0.6c0.1-0.1,0.2-0.2,0.2-0.3l0.2-0.2l-0.3-0.1c-0.4-0.2-0.7-0.5-1-0.9c0,0,0-0.1,0-0.1c0,0,0-0.1,0.1-0.1
			c0.1-0.1,0.3-0.2,0.4-0.2c0.3-0.1,0.5-0.2,0.8-0.2c0.4,0,0.7,0.1,1,0.2c-0.1,0.6-0.2,1.1-0.4,1.6c-0.2,0.4-0.4,0.8-0.6,1.2l0,0.1
			l0,0l0,0c-0.1,0.1-0.1,0.2-0.2,0.3c-0.1,0.1-0.1,0.2-0.2,0.3l0,0c-0.2,0.3-0.5,0.5-0.8,0.6c0,0-0.1,0-0.1,0c0,0-0.1,0-0.1,0
			c-0.3-0.2-0.5-0.5-0.8-0.8l0,0l0,0l0,0l-0.1-0.1c-0.2-0.2-0.3-0.4-0.4-0.7c-0.1-0.1-0.1-0.2-0.1-0.2c-0.1-0.3-0.3-0.5-0.4-0.8l0,0
			l0-0.1c-0.1-0.2-0.1-0.4-0.2-0.5l-0.1-0.3l-0.3,0.1c-0.1,0-0.2,0.1-0.3,0.1c-0.2,0.1-0.5,0.3-0.6,0.5c-0.1,0.1-0.2,0.2-0.2,0.3
			l-0.1,0.1l0,0.1c0.2,0.5,0.4,1,0.7,1.5v0l0,0l0,0l0,0l0,0l0,0c0.2,0.4,0.5,0.7,0.8,1c0.3,0.4,0.7,0.7,1.1,1
			c0.3,0.2,0.5,0.3,0.8,0.5c0.1,0,0.1,0.1,0.2,0.1l0.1,0.1l0.1-0.1c0.3-0.2,0.7-0.4,1-0.6c0.3-0.2,0.5-0.4,0.7-0.6
			c0.2-0.2,0.5-0.5,0.7-0.7c0.1-0.1,0.1-0.2,0.2-0.3l0,0l0-0.1c0.2-0.2,0.3-0.5,0.5-0.7c0.2-0.4,0.4-0.8,0.5-1.1l0,0v0
			c0.1-0.2,0.1-0.5,0.2-0.7l0-0.1c0.1-0.5,0.1-0.9,0.1-1.4C29.5,13.9,29.5,13.6,29.5,13.4z"/>
            <path d="M44.4,20.6v-2c0-1.4-1.1-3.5-3.6-3.5c-0.3,0-0.7,0-1.1,0c-1.2,0-2.7-0.2-3.3-2.1C35.5,10.3,31.9,6,26,6
			c-4.4,0-7.2,2.2-9,4.5c-0.1,0.2-0.2,0.4-0.2,0.6l0.6,3.5l-0.9-1.2c0,0-0.2-0.2-0.5-0.2c0,0,0,0-0.1,0c-0.4,0-0.5,0.3-0.5,0.3
			s-0.6,1.5-2.3,1.6c-0.3,0-1.1,0-1.6,0c-0.3,0-0.6,0-0.6,0c0,0,0,0,0,0c-1.7,0-3.2,1.7-3.2,3.6V26c0,0.3,0.3,0.6,0.6,0.6h4.3
			c-0.2,1-0.4,2.1-0.4,3.1v8.1c0,0.2,0.1,0.3,0.2,0.4c0.1,0.1,0.2,0.2,0.4,0.2c1,0.1,1.9,0.2,2.8,0.8c2.4,1.7,2.3,3.7,2.3,5.1
			c0,0.4,0.4,0.6,0.5,0.6H26h7.7c0.2,0,0.5-0.2,0.5-0.6c0-1.4-0.1-3.4,2.3-5.1c0.9-0.7,1.8-0.8,2.8-0.8c0.1,0,0.3-0.1,0.4-0.2
			c0.1-0.1,0.2-0.3,0.2-0.4v-8.1c0-1.1-0.1-2.1-0.4-3.1h4.2c0.3,0,0.6-0.3,0.6-0.6v-3.4c0-0.3-0.1-0.5-0.4-0.6l-1.4-0.6l1.3-0.3
			C44.2,21.1,44.4,20.9,44.4,20.6z M37.9,36.6c-0.8,0.1-1.7,0.4-2.6,1c-2.4,1.7-3,3.8-3.1,5.3h-1.2v-1.6c0-0.5-0.4-0.8-0.8-0.8
			s-0.8,0.4-0.8,0.8V43h-2.5v-1.7c0-0.5-0.4-0.8-0.8-0.8s-0.8,0.4-0.8,0.8V43h-2.5v-1.6c0-0.5-0.4-0.8-0.8-0.8
			c-0.5,0-0.8,0.4-0.8,0.8V43h-1.2c-0.1-1.6-0.7-3.6-3.1-5.3c-0.9-0.6-1.7-0.9-2.6-1v-3.8l0.8-0.4c0.5,2.1,2.4,3.6,4.7,3.6
			c2.7,0,4.8-2.2,4.8-4.8c0-1.2-0.4-2.3-1.2-3.2l2.7-1.4h11.6c0.3,1,0.4,2,0.4,3.1V36.6z M14.1,30.9v-1.1c0-1.1,0.2-2.1,0.4-3.1h7.7
			l-0.5,0.3l-7,3.6L14.1,30.9z M42.4,24.6H9.6v-1.3h32.8V24.6z M42.4,19.8l-0.2,0l-1.4,0.3c-1.8,0.4-1.2,0.6,0,1.4H9.6v-2.9
			c0-0.4,0.2-0.8,0.5-1.1c0.2-0.3,0.5-0.4,0.8-0.4h0l0.6,0c1.3,0,1.6,0,1.7,0c1.2-0.1,2.1-0.5,2.7-1.1c2,1.4,3.7,1.7,3.3-1.5l0-0.2
			l-0.3-3C20.8,9.1,23.1,8,26,8c5,0,7.9,3.8,8.5,5.6c0.5,1.6,1.8,3.5,5.2,3.5c0.3,0,0.5,0,0.7,0c0.1,0,0.3,0,0.4,0
			c1.5,0,1.6,1.5,1.6,1.5V19.8z"/>
        </g>
    </symbol>
    <!--Icons collection prototypes-->
    <symbol id="icon-exit" viewBox="0 0 50 50">
        <path fill="#fff"
              d="M 3 0 C 1.355469 0 0 1.355469 0 3 L 0 47 C 0 48.644531 1.355469 50 3 50 L 37 50 C 38.644531 50 40 48.644531 40 47 L 40 39 L 38 41 L 38 47 C 38 47.5625 37.5625 48 37 48 L 3 48 C 2.4375 48 2 47.5625 2 47 L 2 3 C 2 2.433594 2.433594 2 3 2 L 37 2 C 37.5625 2 38 2.4375 38 3 L 38 9 L 40 11 L 40 3 C 40 1.355469 38.644531 0 37 0 Z M 37.84375 13.09375 C 37.46875 13.160156 37.167969 13.433594 37.0625 13.796875 C 36.957031 14.164063 37.066406 14.554688 37.34375 14.8125 L 46.53125 24 L 17 24 C 16.96875 24 16.9375 24 16.90625 24 C 16.355469 24.027344 15.925781 24.496094 15.953125 25.046875 C 15.980469 25.597656 16.449219 26.027344 17 26 L 46.53125 26 L 37.34375 35.1875 C 37.046875 35.429688 36.910156 35.816406 36.996094 36.191406 C 37.082031 36.5625 37.375 36.855469 37.746094 36.941406 C 38.121094 37.027344 38.507813 36.890625 38.75 36.59375 L 49.65625 25.71875 L 50.34375 25 L 49.65625 24.28125 L 38.75 13.40625 C 38.542969 13.183594 38.242188 13.070313 37.9375 13.09375 C 37.90625 13.09375 37.875 13.09375 37.84375 13.09375 Z "/>
    </symbol>
</svg>