<!--SVG collection symbol sprite-->
<svg xmlns="http://www.w3.org/2000/svg" width="0" height="0" display="none">
    <title>SVG symbol sprite for vuejs.fun</title>
    <desc>Developed by Barfi team [http://barfi.ru]</desc>
    <!--Avatars-->
    <symbol id="ava-default" viewBox="0 0 52 52">
        <circle fill="#eeeef0" cx="26" cy="26" r="26"/>
        <path fill="#ced0d8" d="M40.3,13.9c0-0.4-0.1-0.9-0.2-1.3c-1.6-0.6-3.2-1.1-4.9-1.4c-1.3-0.2-2.6-0.4-4-0.5c-0.4,0-0.8,0-1.2,0
			c-0.8,0-1.6,0.1-2.4,0.2c-2,0.3-3.8,0.9-5.5,1.7c-1.5,0.8-2.9,1.8-4.1,2.9c0,0,0,0,0,0c-0.2,0.2-0.5,0.5-0.7,0.7
			c0.3,1.4,0.7,2.8,1.3,4c0.2,0.4,0.3,0.7,0.5,1c0.2,0.4,0.5,0.8,0.7,1.2c0,0,0,0,0,0c0,0,0,0,0,0c1.2,1.9,2.7,3.5,4.5,4.8
			c1.1-0.6,2-1.3,2.9-2.2c0.3-0.3,0.6-0.7,0.9-1.1c-1.9-0.9-3.4-2.4-4.5-4.2c0,0-0.1-0.1-0.1-0.1c-0.1-0.2-0.2-0.5-0.2-0.8
			c0-0.5,0.3-1,0.7-1.3c0,0,0,0,0.1,0c0.6-0.4,1.2-0.7,1.9-0.9c1.2-0.5,2.5-0.7,3.9-0.7c0.1,0,0.1,0,0.2,0c1.7,0,3.3,0.4,4.8,1.2
			c0,0,0,0,0,0c0.2,0.1,0.4,0.2,0.5,0.3v0c0,0.1,0,0.1,0,0.1c-0.2,2.6-0.9,5.2-1.8,7.5C32.9,27,32,28.7,31,30.3l-0.2,0.3
			c0,0,0,0,0,0c0,0.1-0.1,0.1-0.1,0.2c0,0,0,0,0,0c-0.2,0.4-0.5,0.7-0.8,1.1c0,0,0,0,0,0c-0.3,0.4-0.6,0.8-0.9,1.1
			c-0.1,0.1-0.1,0.1-0.2,0.2c-1.1,1.2-2.4,2.2-3.9,2.9c-0.1,0.1-0.3,0.1-0.5,0.2c-0.3,0.1-0.6,0.2-0.9,0.3c-1.4-1.2-2.6-2.5-3.8-3.9
			c-0.1-0.1-0.1-0.1-0.1-0.2c0,0-0.1-0.1-0.1-0.1c-0.1-0.1-0.1-0.1-0.1-0.2c-0.7-0.9-1.3-1.9-1.9-2.8c0,0,0-0.1-0.1-0.1
			c-0.2-0.3-0.3-0.6-0.5-0.8c-0.6-1.1-1.1-2.3-1.6-3.5c0-0.1-0.1-0.2-0.1-0.2c-0.3-0.8-0.5-1.5-0.7-2.3c-0.4,0.2-0.7,0.3-1,0.5v0
			c-0.9,0.5-1.7,1.2-2.4,2c-0.3,0.3-0.6,0.7-0.9,1.1c0.7,2.1,1.6,4.1,2.8,5.9c0,0,0,0,0,0c0,0,0,0,0,0c0,0,0.1,0.1,0.1,0.1
			c0.9,1.5,2,2.8,3.2,4.1v0c1.3,1.4,2.8,2.7,4.4,3.9c1,0.7,2.1,1.4,3.2,2c0.2,0.1,0.5,0.2,0.7,0.4c1.4-0.7,2.7-1.4,3.9-2.3
			c1-0.7,2-1.5,2.9-2.3l0,0c0.9-0.9,1.8-1.8,2.7-2.8v0c0.3-0.4,0.6-0.7,0.9-1.1c0,0,0,0,0-0.1c0,0,0.1-0.1,0.1-0.1c0,0,0,0,0,0
			c0.7-0.9,1.3-1.9,1.9-3v0c0.8-1.5,1.5-3,2-4.6c0,0,0,0,0,0c0,0,0,0,0,0c0.3-1,0.6-2,0.9-3.1c0-0.1,0-0.2,0.1-0.3
			c0.4-1.9,0.6-3.8,0.6-5.8C40.5,15.8,40.4,14.9,40.3,13.9z"/>
    </symbol>
    <symbol id="ava-special-1" viewBox="0 0 52 52">
        <circle fill="#eeeef0" cx="26" cy="26" r="26"/>
        <g id="gr-skin" fill="#FDD09F">
            <path d="M12,26.5c0,2.2,0.9,4.3-1,4.3s-3.5-1.8-3.5-4s1.6-4,3.5-4S12,24.3,12,26.5z"/>
            <path d="M43.6,29.2c0,1.2-1.7,1.8-2.6,1.8s-1-0.8-1-2c0-1.2,0.1-2.4,1.1-2.4S43.6,27.9,43.6,29.2z"/>
            <path d="M35.6,40.4c-1.7,2-6.1,4.4-9.5,4.4c-3.5,0-8.5-2.9-10.4-5.1C14.3,38,12.4,34.1,12,32c-0.5-2.7,0-10.9,0-10.9
			h28c0,0,0.5,8.2,0,10.9C39.5,34.3,37.2,38.6,35.6,40.4z"/>
        </g>
        <g id="gr-beard" fill="inherit">
            <polygon points="12,21.1 14.8,21.1 14.8,29 12.9,34.2 12,29.7 		"/>
            <polygon points="40,21.1 37.2,21.1 37.2,29 39.1,34.2 40,29.7 		"/>
            <path d="M29.6,44.3h-7.3c-2.4,0-4.3-1.9-4.3-4.3v-3.3c0-2.4,1.9-4.3,4.3-4.3h7.3c2.4,0,4.3,1.9,4.3,4.3V40
			C33.9,42.4,32,44.3,29.6,44.3z"/>
        </g>
        <g id="gr-cap" fill="currentColor">
            <path d="M16.2,10.5C18,8.7,22.5,6.9,26,6.9c3.5,0,8,2,9.9,3.8c1.3,1.3,3.2,4.5,3.7,6.3c0.3,1,0.4,4.2,0.4,4.2l-28-0.1
			c0,0,0.2-3.1,0.4-4.1C12.9,15.2,14.8,11.9,16.2,10.5z"/>
            <path d="M40.3,19.8c1.1,1.1,4.6,0.2,6.8-1.9s2.7-5.7,1.9-6.5c-0.9-0.9-4.4-0.3-6.6,1.9S39.2,18.6,40.3,19.8z"/>
            <path d="M40.7,20.7c-1,1.3-0.5,4.6,1.7,6.8c2.2,2.1,5.9,2.6,6.7,1.8c0.9-0.9,0.3-4.4-1.9-6.6
			C45,20.5,41.6,19.5,40.7,20.7z"/>
        </g>
        <g id="gr-stroke" fill="#55576e">
            <path fill="#fff"
                  d="M31.4,36.6c0,2.4-2.2,1.3-5.4,1.3s-5.2,0.9-5.4-1.5c-0.1-1.1,2.3-2.1,5.4-2.1S31.4,35.5,31.4,36.6z"/>
            <circle cx="45.6" cy="14.7" r="0.9"/>
            <circle cx="21.4" cy="17.8" r="0.9"/>
            <path d="M29.6,15.6h-2.4c-0.5,0-0.9-0.4-0.9-0.9s0.4-0.9,0.9-0.9h2.4c0.5,0,0.8,0.4,0.8,0.9S30.1,15.6,29.6,15.6z"/>
            <path d="M35.2,18.7c-0.5,0-0.8-0.4-0.8-0.9c0-0.5,0.4-0.9,0.8-0.9l2.3,0c0.5,0,0.8,0.4,0.8,0.9c0,0.5-0.4,0.9-0.8,0.9
			L35.2,18.7z"/>
            <path d="M22.4,27.3l-3-1.7c-0.4-0.2-0.9-0.1-1.2,0.3c-0.2,0.4-0.1,0.9,0.3,1.2l1.2,0.7c-0.5,0.2-0.9,0.6-0.9,1.2
			c0,0.7,0.6,1.3,1.3,1.3s1.3-0.6,1.3-1.3c0-0.1,0-0.2-0.1-0.3l0.2,0.1c0.1,0.1,0.3,0.1,0.4,0.1c0.3,0,0.6-0.2,0.7-0.4
			C23,28,22.8,27.5,22.4,27.3z"/>
            <path d="M33.9,25.8c-0.2-0.4-0.8-0.5-1.2-0.3l-3.1,1.8c-0.4,0.2-0.5,0.8-0.3,1.2c0.2,0.3,0.4,0.4,0.7,0.4
			c0.1,0,0.3,0,0.4-0.1l0.2-0.1c0,0.1-0.1,0.2-0.1,0.3c0,0.7,0.6,1.3,1.3,1.3s1.3-0.6,1.3-1.3c0-0.6-0.4-1.1-1-1.2l1.3-0.8
			C34,26.7,34.2,26.2,33.9,25.8z"/>
            <path d="M26,35.4c1.7,0,2.3,0.1,3,0.3l0.3,0.1c0.2,0,1.1,0.3,1.1,1v0.1c0,0.4-0.4,0.8-0.6,0.8c-0.2,0-0.5-0.1-0.8-0.1
			c-0.7-0.1-1.6-0.3-3.1-0.3c-1.3,0-2.4,0.2-3,0.4c-0.2,0-0.5,0.1-0.5,0.1c-0.4,0-0.9-0.3-0.9-0.8v-0.1c0-0.7,0.8-0.9,1.1-0.9
			c0.2,0,0.3-0.1,0.5-0.1C23.9,35.5,24.6,35.4,26,35.4L26,35.4 M26,33.7c-1.9,0-2.7,0.2-3.6,0.4c-1.4,0.3-2.5,1.2-2.5,2.6v0.1
			c0,1.4,1.1,2.4,2.5,2.5c0,0,0.1,0,0.1,0c0.6,0,1.7-0.5,3.6-0.5c1.9,0,2.7,0.4,3.7,0.5c0,0,0.1,0,0.1,0c1.1,0,2.3-1.2,2.3-2.5v-0.1
			c0-1.4-1.1-2.3-2.5-2.6C28.8,33.9,28.2,33.7,26,33.7C26,33.7,26,33.7,26,33.7L26,33.7z"/>
            <path d="M49.9,10.4c-0.2-0.2-0.5-0.3-0.8-0.2c-0.1,0-0.4,0-0.6,0c-0.3,0-0.7,0-1.1,0c-3,0.1-6.1,1.5-7.5,5.1
			C37.7,9.8,32.3,5.9,26,5.9c-8.3,0-15,6.7-15,15v0.9c-2.6,0.3-4.5,2.4-4.5,5c0,1.9,1,3.5,2.5,4.4v2.3c0,0.5,0.4,0.8,0.9,0.8
			s0.9-0.4,0.9-0.8v-1.6c0.2,0,0.3,0,0.5,0.1c0.5,4,2.7,7.6,5.8,10c2.2,2.5,5.5,4.1,9.1,4.1s6.9-1.6,9.1-4.1c3.1-2.4,5.2-5.9,5.8-10
			c1.6-0.1,2.9-0.9,3.8-2.1c1.2,0.4,2.3,0.5,2.8,0.5c0.3,0,0.5,0,0.7,0c0.3,0,0.5,0,0.9,0.1c0,0,0.1,0,0.1,0c0.2,0,0.5-0.1,0.6-0.3
			c0.2-0.2,0.3-0.5,0.2-0.8c0-0.1,0-0.4,0-0.6c0-0.3,0-0.7,0-1c-0.1-2.9-1.5-6-4.9-7.4c0.8-0.3,1.4-0.6,2-1.1
			c2.5-2.1,2.8-5.3,2.8-6.2c0-0.3,0-0.5,0-0.7c0-0.3,0-0.5,0.1-0.9C50.2,10.9,50.1,10.6,49.9,10.4z M10.7,30v-1.5
			c0-0.5-0.4-0.8-0.9-0.8S9,28,9,28.5V29c-0.5-0.6-0.8-1.4-0.8-2.2c0-1.7,1.2-3.1,2.8-3.3v6.4c0,0.1,0,0.2,0,0.2
			C10.9,30.1,10.8,30.1,10.7,30z M26,7.9c4.6,0,8.6,2.4,10.9,6l-4.4,0c-0.5,0-0.8,0.4-0.8,0.9c0,0.5,0.4,0.8,0.8,0.8c0,0,0,0,0,0
			l5.3-0.1c0.7,1.4,1.1,3,1.1,4.7H13c0-0.5,0.1-1,0.2-1.5h5.2c0.5,0,0.9-0.4,0.9-0.9S18.9,17,18.5,17h-4.8
			C15.3,11.7,20.2,7.9,26,7.9z M13,29.9v-7.6h0.9v6.4c0,0-0.1,1.7-0.8,3.1C13.1,31.1,13,30.5,13,29.9z M33.1,41
			c-1.9,1.8-4.4,2.9-7.1,2.9s-5.2-1-7.1-2.9v-4.3c0-1.8,1.5-3.3,3.4-3.3h7.5c1.9,0,3.4,1.5,3.4,3.3V41z M35.1,39.1v-2.5
			c0-3-2.4-5.3-5.4-5.3h-7.5c-3,0-5.4,2.4-5.4,5.3v2.5c-1.4-1.4-2.6-3.2-3.2-5.1c1.8-2.1,1.9-5.2,1.9-5.4v-6.4h20.9v6.4
			c0,0.1,0.1,3.3,1.9,5.3C37.7,35.9,36.5,37.7,35.1,39.1z M39,29.9c0,0.6,0,1.2-0.1,1.8c-0.6-1.4-0.7-3-0.7-3v-6.4H39V29.9z
			 M41,30.1c0-0.1,0-0.2,0-0.3v-2.7c0.1,0.1,0.1,0.2,0.2,0.3c0.6,0.7,1.2,1.2,1.8,1.6C42.5,29.6,41.8,30,41,30.1z M48.4,27.7
			c0,0.3,0,0.6,0,0.8c-0.1,0-0.2,0-0.3,0c-0.2,0-0.4,0-0.6,0c-0.8,0-3.3-0.3-4.9-2.2c-0.8-0.9-1.2-2.1-1.3-3.5l2.9,2.6
			c0.2,0.2,0.4,0.2,0.6,0.2c0.2,0,0.5-0.1,0.6-0.3c0.3-0.3,0.3-0.9-0.1-1.2l-3.4-3.1C47.7,21.7,48.3,26.2,48.4,27.7z M48.4,12.8
			c0,0.8-0.3,3.3-2.2,4.9c-0.9,0.7-2,1.1-3.3,1.3l1.5-1.4c0.3-0.3,0.4-0.9,0-1.2c-0.3-0.3-0.9-0.4-1.2,0l-2.4,2.2
			c0.6-6,5.1-6.6,6.6-6.6c0.3,0,0.6,0,0.8,0c0,0.1,0,0.2,0,0.3C48.4,12.3,48.4,12.5,48.4,12.8z"/>
        </g>
    </symbol>
    <symbol id="ava-special-2" viewBox="0 0 52 52">
        <circle fill="#eeeef0" cx="26" cy="26" r="26"/>
        <g id="gr-beard_1" fill="inherit">
            <circle cx="26" cy="31.7" r="15.3"/>
        </g>
        <g id="gr-skin_1" fill="#FDD09F">
            <path d="M37.1,27c-0.9,7.3-1.9,10.8-10.9,10.8C15.5,37.8,16,33.8,15,27c-0.5-3.2,4.3-4.4,10.7-4.4S37.6,23.2,37.1,27z
			"/>
        </g>
        <g id="gr-cap_1">
            <polygon fill="currentColor" points="11,24 14.5,25 20.9,23 29.2,22.9 37.2,25 40.9,24 45.7,15.2 40.3,13.9 36.8,11.3 33.9,7.7 29.5,5.2
			23.2,5.2 18.4,7.3 14.8,11.6 11,14.1 6.8,15.3 		"/>
            <polygon fill="#000" fill-opacity="0.15" points="6.8,15.3 8.5,18.8 13.4,17.2 17.7,13.8 21.6,9.9 25,8.8 29,9.2 31.9,10.9 35.9,15.5 40.2,17.9
			43.7,18.8 45.5,15.5 39.7,13.8 36.8,10.9 33.9,7.7 29.7,5.3 23.7,5 19.6,6.7 15.3,10.9 12,13.8 		"/>
        </g>
        <g id="gr-stroke_1" fill="#55576e">
            <path fill="#fff" d="M29.7,33.6c0,1.6-1.8,0.7-3.8,0.7s-3.6,0.9-3.9-0.6c-0.2-1.2,1.9-1.4,3.9-1.4S29.7,32.5,29.7,33.6z"/>
            <path d="M26,32.7c1.2,0,2.7,0.3,3.1,0.4c0.1,0,0.3,0.2,0.3,0.3v0.2c0,0.2-0.3,0.5-0.5,0.5h0c-0.1,0-0.3-0.1-0.5-0.1
			c-0.5-0.1-1.2-0.3-2.4-0.3c-1.2,0-1.9,0.2-2.4,0.3c-0.2,0-0.4,0.1-0.5,0.1c-0.2,0-0.5-0.2-0.5-0.5l0-0.1c0-0.1,0.2-0.3,0.2-0.4
			C23.8,32.9,25.3,32.7,26,32.7 M26,31c-0.8,0-2.4,0.1-3.7,0.5c-0.8,0.2-1.4,1.2-1.4,2v0.1c0,1.2,1,2.2,2.2,2.2c0.1,0,0.1,0,0.2,0
			c0.7-0.1,1.2-0.3,2.8-0.3c1.5,0,2,0.3,2.7,0.4c0.1,0,0.1,0,0.2,0c1.1,0,2.2-1,2.2-2.2v-0.2c0-1.1-1-1.8-1.4-1.9
			C29.1,31.3,27.3,31,26,31L26,31z"/>
            <path d="M23.9,26.4l-2.7-1.5c-0.4-0.2-0.9-0.1-1.2,0.3s-0.1,0.9,0.3,1.2l0.8,0.4c-0.4,0.2-0.7,0.6-0.7,1.1
			c0,0.7,0.6,1.3,1.3,1.3s1.3-0.6,1.3-1.3c0-0.1,0-0.1,0-0.2l0.2,0.1c0.1,0.1,0.3,0.1,0.4,0.1c0.3,0,0.6-0.2,0.7-0.4
			C24.4,27.2,24.3,26.6,23.9,26.4z"/>
            <circle fill="#636577" cx="31.5" cy="26.8" r="3"/>
            <path d="M29.1,12.2c0-0.1,0-0.2,0-0.3l0-0.1l-0.1-0.1c-0.4-0.2-0.8-0.3-1.2-0.3c-0.3-0.1-0.7-0.1-1-0.1
			c-0.1,0-0.2,0-0.3,0h0h0c-0.2,0-0.4,0-0.6,0c-0.5,0.1-1,0.2-1.4,0.4c-0.4,0.2-0.7,0.4-1.1,0.7c-0.1,0.1-0.1,0.1-0.2,0.2l-0.1,0.1
			l0,0.1c0.1,0.4,0.2,0.7,0.3,1c0,0.1,0.1,0.2,0.1,0.3c0.1,0.1,0.1,0.2,0.2,0.3l0,0l0,0c0.3,0.5,0.7,0.9,1.1,1.2l0.1,0.1l0.1-0.1
			c0.3-0.2,0.5-0.3,0.8-0.6c0.1-0.1,0.2-0.2,0.2-0.3l0.2-0.2l-0.3-0.1c-0.4-0.2-0.7-0.5-1-0.9c0,0,0-0.1,0-0.1c0,0,0-0.1,0.1-0.1
			c0.1-0.1,0.3-0.2,0.4-0.2c0.3-0.1,0.5-0.2,0.8-0.2c0.4,0,0.7,0.1,1,0.2c-0.1,0.6-0.2,1.1-0.4,1.6c-0.2,0.4-0.4,0.8-0.6,1.2l0,0.1
			l0,0l0,0c-0.1,0.1-0.1,0.2-0.2,0.3c-0.1,0.1-0.1,0.2-0.2,0.3l0,0c-0.2,0.3-0.5,0.5-0.8,0.6c0,0-0.1,0-0.1,0c0,0-0.1,0-0.1,0
			c-0.3-0.2-0.5-0.5-0.8-0.8l0,0l0,0l0,0l-0.1-0.1c-0.2-0.2-0.3-0.4-0.4-0.7c-0.1-0.1-0.1-0.2-0.1-0.2c-0.1-0.3-0.3-0.5-0.4-0.8l0,0
			l0-0.1c-0.1-0.2-0.1-0.4-0.2-0.5l-0.1-0.3L22.6,14c-0.1,0-0.2,0.1-0.3,0.1c-0.2,0.1-0.5,0.3-0.6,0.5c-0.1,0.1-0.2,0.2-0.2,0.3
			L21.4,15l0,0.1c0.2,0.5,0.4,1,0.7,1.5v0l0,0l0,0l0,0l0,0l0,0c0.2,0.4,0.5,0.7,0.8,1c0.3,0.4,0.7,0.7,1.1,1
			c0.3,0.2,0.5,0.3,0.8,0.5c0.1,0,0.1,0.1,0.2,0.1l0.1,0.1l0.1-0.1c0.3-0.2,0.7-0.4,1-0.6c0.3-0.2,0.5-0.4,0.7-0.6
			c0.2-0.2,0.5-0.5,0.7-0.7c0.1-0.1,0.1-0.2,0.2-0.3l0,0l0-0.1c0.2-0.2,0.3-0.5,0.5-0.7c0.2-0.4,0.4-0.8,0.5-1.1l0,0v0
			c0.1-0.2,0.1-0.5,0.2-0.7l0-0.1c0.1-0.5,0.1-0.9,0.1-1.4C29.2,12.6,29.2,12.4,29.1,12.2z"/>
            <path d="M42.2,23.7c1.3-2.5,3.3-6.2,4.3-8.2c0.2-0.3,0.1-1-0.6-1.1c-3.8-0.6-6.3-1.4-8.6-4C36.2,8.9,33.3,4,26,4
			s-10.2,5-11.4,6.3c-2.2,2.6-4.8,3.5-8.6,4c-0.6,0.1-0.7,0.8-0.6,1.1c1,2,3,5.7,4.3,8.2c0.3,0.6,0.7,1,1.2,1.4
			c-0.9,2-1.4,4.2-1.4,6.6C9.7,40.7,17,48,26,48s16.3-7.3,16.3-16.3c0-2.3-0.5-4.6-1.4-6.6C41.4,24.7,41.9,24.3,42.2,23.7z M8,16
			c3.2-0.6,5.8-1.8,8.1-4.4c0.2-0.2,0.3-0.4,0.6-0.7C18,9.2,20.5,6,26,6c5.5,0,8,3.2,9.3,4.9c0.2,0.3,0.4,0.5,0.6,0.7
			c2.3,2.7,4.9,3.8,8.1,4.4c-0.2,0.4-0.5,0.9-0.8,1.4c-3.4-0.6-6.5-2.5-8.1-4.3c-1.4-1.6-3.7-5.5-9.1-5.5s-7.7,3.9-9.1,5.5
			c-1.6,1.7-4.7,3.7-8.1,4.3C8.5,17,8.3,16.5,8,16z M26,46c-7.9,0-14.3-6.4-14.3-14.3c0-2,0.4-4,1.2-5.7c0.3,0.1,0.7,0.1,1,0.2
			c0.1,0,0.1,0,0.2,0c0,0,0.1,0,0.1,0c-0.1,0.6-0.2,1.2-0.2,1.8c-0.2,5.5,4.6,10.7,7.8,10.9c0.1,0,0.2,0,0.2,0c1.3,0,2-0.7,4-0.7
			c2.1,0,2.6,0.7,3.9,0.7c0.2,0,0.4,0,0.7-0.1c3.1-0.5,7.5-5.5,7.5-10.8c0-0.6-0.1-1.2-0.2-1.8c0,0,0.1,0,0.1,0c0.1,0,0.1,0,0.2,0
			c0.3,0,0.6-0.1,1-0.2c0.8,1.8,1.2,3.7,1.2,5.7C40.3,39.6,33.9,46,26,46z M31.6,30.9c0.2,0,0.4,0,0.6-0.1l1.5,3.7
			c-1.2,1.4-2.5,2.4-3.4,2.5c-0.1,0-0.3,0-0.4,0c-0.3,0-0.5-0.1-0.9-0.2c-0.7-0.2-1.5-0.5-3-0.5c-1.4,0-2.3,0.3-3,0.5
			c-0.5,0.1-0.7,0.2-1,0.2c0,0-0.1,0-0.1,0c-2.1-0.1-6.2-4.4-6.1-9c0-0.8,0.1-1.6,0.3-2.3c1.9-0.7,4.4-1.9,9.9-1.9c1,0,2,0,2.8,0.1
			c-0.8,0.7-1.3,1.8-1.3,3C27.5,29.1,29.3,30.9,31.6,30.9z M35.4,25.4c0.2,0.1,0.4,0.1,0.5,0.2c0.2,0.7,0.3,1.5,0.3,2.3
			c0,1.8-0.6,3.4-1.4,4.9l-1.1-2.6c1.1-0.7,1.9-2,1.9-3.4C35.6,26.3,35.5,25.8,35.4,25.4z M31.6,29.2c-1.3,0-2.4-1.1-2.4-2.4
			s1.1-2.4,2.4-2.4s2.4,1.1,2.4,2.4S32.9,29.2,31.6,29.2z M40.4,22.8C40,23.6,38.9,24,38,24.1l-0.1,0c-0.5,0-1.1-0.2-1.9-0.6
			c-1.9-0.7-4.7-1.8-10.1-1.8c0,0,0,0,0,0c-5.1,0.1-8,1.1-9.9,1.8c-0.9,0.3-1.5,0.6-2,0.6c0,0-0.1,0-0.1,0c-0.8,0-1.9-0.5-2.4-1.3
			c-0.5-1-1.2-2.2-1.8-3.4c3.6-0.8,6.8-2.8,8.6-4.8c0.2-0.2,0.5-0.5,0.7-0.9c1.4-1.8,3.2-4,6.9-4c3.7,0,5.5,2.2,6.9,4
			c0.3,0.3,0.5,0.6,0.7,0.9c1.7,2,5,4,8.6,4.8C41.6,20.5,40.9,21.8,40.4,22.8z"/>
        </g>
    </symbol>
    <symbol id="ava-special-3" viewBox="0 0 52 52">
        <circle fill="#eeeef0" cx="26" cy="26" r="26"/>
    </symbol>
</svg>