<!--SVG collection symbol sprite-->
<svg xmlns="http://www.w3.org/2000/svg" width="0" height="0" display="none">
    <title>SVG symbol sprite for vuejs.fun</title>
    <desc>Developed by Barfi team [http://barfi.ru]</desc>
    <!--Avatars-->
    <symbol id="ava-default" viewBox="0 0 52 52">
        <circle fill="#eeeef0" cx="26" cy="26" r="26"/>
        <path fill="#ced0d8" d="M40.3,13.9c0-0.4-0.1-0.9-0.2-1.3c-1.6-0.6-3.2-1.1-4.9-1.4c-1.3-0.2-2.6-0.4-4-0.5c-0.4,0-0.8,0-1.2,0
			c-0.8,0-1.6,0.1-2.4,0.2c-2,0.3-3.8,0.9-5.5,1.7c-1.5,0.8-2.9,1.8-4.1,2.9c0,0,0,0,0,0c-0.2,0.2-0.5,0.5-0.7,0.7
			c0.3,1.4,0.7,2.8,1.3,4c0.2,0.4,0.3,0.7,0.5,1c0.2,0.4,0.5,0.8,0.7,1.2c0,0,0,0,0,0c0,0,0,0,0,0c1.2,1.9,2.7,3.5,4.5,4.8
			c1.1-0.6,2-1.3,2.9-2.2c0.3-0.3,0.6-0.7,0.9-1.1c-1.9-0.9-3.4-2.4-4.5-4.2c0,0-0.1-0.1-0.1-0.1c-0.1-0.2-0.2-0.5-0.2-0.8
			c0-0.5,0.3-1,0.7-1.3c0,0,0,0,0.1,0c0.6-0.4,1.2-0.7,1.9-0.9c1.2-0.5,2.5-0.7,3.9-0.7c0.1,0,0.1,0,0.2,0c1.7,0,3.3,0.4,4.8,1.2
			c0,0,0,0,0,0c0.2,0.1,0.4,0.2,0.5,0.3v0c0,0.1,0,0.1,0,0.1c-0.2,2.6-0.9,5.2-1.8,7.5C32.9,27,32,28.7,31,30.3l-0.2,0.3
			c0,0,0,0,0,0c0,0.1-0.1,0.1-0.1,0.2c0,0,0,0,0,0c-0.2,0.4-0.5,0.7-0.8,1.1c0,0,0,0,0,0c-0.3,0.4-0.6,0.8-0.9,1.1
			c-0.1,0.1-0.1,0.1-0.2,0.2c-1.1,1.2-2.4,2.2-3.9,2.9c-0.1,0.1-0.3,0.1-0.5,0.2c-0.3,0.1-0.6,0.2-0.9,0.3c-1.4-1.2-2.6-2.5-3.8-3.9
			c-0.1-0.1-0.1-0.1-0.1-0.2c0,0-0.1-0.1-0.1-0.1c-0.1-0.1-0.1-0.1-0.1-0.2c-0.7-0.9-1.3-1.9-1.9-2.8c0,0,0-0.1-0.1-0.1
			c-0.2-0.3-0.3-0.6-0.5-0.8c-0.6-1.1-1.1-2.3-1.6-3.5c0-0.1-0.1-0.2-0.1-0.2c-0.3-0.8-0.5-1.5-0.7-2.3c-0.4,0.2-0.7,0.3-1,0.5v0
			c-0.9,0.5-1.7,1.2-2.4,2c-0.3,0.3-0.6,0.7-0.9,1.1c0.7,2.1,1.6,4.1,2.8,5.9c0,0,0,0,0,0c0,0,0,0,0,0c0,0,0.1,0.1,0.1,0.1
			c0.9,1.5,2,2.8,3.2,4.1v0c1.3,1.4,2.8,2.7,4.4,3.9c1,0.7,2.1,1.4,3.2,2c0.2,0.1,0.5,0.2,0.7,0.4c1.4-0.7,2.7-1.4,3.9-2.3
			c1-0.7,2-1.5,2.9-2.3l0,0c0.9-0.9,1.8-1.8,2.7-2.8v0c0.3-0.4,0.6-0.7,0.9-1.1c0,0,0,0,0-0.1c0,0,0.1-0.1,0.1-0.1c0,0,0,0,0,0
			c0.7-0.9,1.3-1.9,1.9-3v0c0.8-1.5,1.5-3,2-4.6c0,0,0,0,0,0c0,0,0,0,0,0c0.3-1,0.6-2,0.9-3.1c0-0.1,0-0.2,0.1-0.3
			c0.4-1.9,0.6-3.8,0.6-5.8C40.5,15.8,40.4,14.9,40.3,13.9z"/>
    </symbol>
    <symbol id="ava-special-1" viewBox="0 0 52 52">
        <circle fill="#eeeef0" cx="26" cy="26" r="26"/>
    </symbol>
    <symbol id="ava-special-2" viewBox="0 0 52 52">
        <circle fill="#eeeef0" cx="26" cy="26" r="26"/>
    </symbol>
    <symbol id="ava-special-3" viewBox="0 0 52 52">
        <circle fill="#eeeef0" cx="26" cy="26" r="26"/>
    </symbol>
</svg>